# xmcd
#
# Track frame offsets:
#	150
#	8717
#	18715
#	28117
#	36530
#	46800
#	57730
#	68575
#	80122
#	91270
#
# Disc length: 1364 seconds
#
# Revision: 1
# Processed by: cddbd v1.5.1PL0 Copyright (c) Steve Scherf et al.
# Submitted via: audiograbber 1.83.01
#
DISCID=8305520a
DTITLE=Jimmy Wakely - Million Sellers
DYEAR=1996
DGENRE=
TTITLE0=Sleeping Around
TTITLE1=I'll never let you go
TTITLE2=Anytime
TTITLE3=San Antonio Rose
TTITLE4=I love you so much it hurts
TTITLE5=Tennessee Waltz
TTITLE6=Your cheatin' heart
TTITLE7=Beautiful brown eyes
TTITLE8=Oklahoma hills
TTITLE9=One has my name
EXTD=
EXTT0=
EXTT1=
EXTT2=
EXTT3=
EXTT4=
EXTT5=
EXTT6=
EXTT7=
EXTT8=
EXTT9=
PLAYORDER=
